{
  "timestamp": "2026-05-28T04:21:48.668Z",
  "error": {
    "message": "Command failed: ffmpeg -y -i \"/home/nabin2004/Desktop/EdClaw/src/educlaw/automanim/workspace/workspace_episode_0001/final.mp4\" -i \"/home/nabin2004/Desktop/EdClaw/src/educlaw/automanim/workspace/workspace_episode_0001/audio.wav\" -c:v copy -c:a aac -shortest \"/home/nabin2004/Desktop/EdClaw/src/educlaw/automanim/workspace/workspace_episode_0001/final.mp4\"\nffmpeg version 6.1.1-3ubuntu5+esm7 Copyright (c) 2000-2023 the FFmpeg developers\n  built with gcc 13 (Ubuntu 13.3.0-6ubuntu2~24.04)\n  configuration: --prefix=/usr --extra-version=3ubuntu5+esm7 --toolchain=hardened --libdir=/usr/lib/x86_64-linux-gnu --incdir=/usr/include/x86_64-linux-gnu --arch=amd64 --enable-gpl --disable-stripping --disable-omx --enable-gnutls --enable-libaom --enable-libass --enable-libbs2b --enable-libcaca --enable-libcdio --enable-libcodec2 --enable-libdav1d --enable-libflite --enable-libfontconfig --enable-libfreetype --enable-libfribidi --enable-libglslang --enable-libgme --enable-libgsm --enable-libharfbuzz --enable-libmp3lame --enable-libmysofa --enable-libopenjpeg --enable-libopenmpt --enable-libopus --enable-librubberband --enable-libshine --enable-libsnappy --enable-libsoxr --enable-libspeex --enable-libtheora --enable-libtwolame --enable-libvidstab --enable-libvorbis --enable-libvpx --enable-libwebp --enable-libx265 --enable-libxml2 --enable-libxvid --enable-libzimg --enable-openal --enable-opencl --enable-opengl --disable-sndio --enable-libvpl --disable-libmfx --enable-libdc1394 --enable-libdrm --enable-libiec61883 --enable-chromaprint --enable-frei0r --enable-ladspa --enable-libbluray --enable-libjack --enable-libpulse --enable-librabbitmq --enable-librist --enable-libsrt --enable-libssh --enable-libsvtav1 --enable-libx264 --enable-libzmq --enable-libzvbi --enable-lv2 --enable-sdl2 --enable-libplacebo --enable-librav1e --enable-pocketsphinx --enable-librsvg --enable-libjxl --enable-shared\n  libavutil      58. 29.100 / 58. 29.100\n  libavcodec     60. 31.102 / 60. 31.102\n  libavformat    60. 16.100 / 60. 16.100\n  libavdevice    60.  3.100 / 60.  3.100\n  libavfilter     9. 12.100 /  9. 12.100\n  libswscale      7.  5.100 /  7.  5.100\n  libswresample   4. 12.100 /  4. 12.100\n  libpostproc    57.  3.100 / 57.  3.100\nInput #0, mov,mp4,m4a,3gp,3g2,mj2, from '/home/nabin2004/Desktop/EdClaw/src/educlaw/automanim/workspace/workspace_episode_0001/final.mp4':\n  Metadata:\n    major_brand     : isom\n    minor_version   : 512\n    compatible_brands: isomiso2avc1mp41\n    encoder         : Lavf60.16.100\n    comment         : Rendered with Manim Community v0.20.1\n  Duration: 00:00:16.67, start: 0.000000, bitrate: 325 kb/s\n  Stream #0:0[0x1](und): Video: h264 (High) (avc1 / 0x31637661), yuv420p(progressive), 854x480, 252 kb/s, 15 fps, 15 tbr, 90k tbn (default)\n    Metadata:\n      handler_name    : VideoHandler\n      vendor_id       : [0][0][0][0]\n  Stream #0:1[0x2](und): Audio: aac (LC) (mp4a / 0x6134706D), 22050 Hz, mono, fltp, 67 kb/s (default)\n    Metadata:\n      handler_name    : SoundHandler\n      vendor_id       : [0][0][0][0]\n[aist#1:0/pcm_s16le @ 0x6315f83c6b00] Guessed Channel Layout: mono\nInput #1, wav, from '/home/nabin2004/Desktop/EdClaw/src/educlaw/automanim/workspace/workspace_episode_0001/audio.wav':\n  Metadata:\n    encoder         : Lavf60.16.100\n  Duration: 00:00:50.61, bitrate: 384 kb/s\n  Stream #1:0: Audio: pcm_s16le ([1][0][0][0] / 0x0001), 24000 Hz, 1 channels, s16, 384 kb/s\nOutput /home/nabin2004/Desktop/EdClaw/src/educlaw/automanim/workspace/workspace_episode_0001/final.mp4 same as Input #0 - exiting\nFFmpeg cannot edit existing files in-place.\nError opening output file /home/nabin2004/Desktop/EdClaw/src/educlaw/automanim/workspace/workspace_episode_0001/final.mp4.\nError opening output files: Invalid argument\n",
    "name": "Error",
    "stack": "Error: Command failed: ffmpeg -y -i \"/home/nabin2004/Desktop/EdClaw/src/educlaw/automanim/workspace/workspace_episode_0001/final.mp4\" -i \"/home/nabin2004/Desktop/EdClaw/src/educlaw/automanim/workspace/workspace_episode_0001/audio.wav\" -c:v copy -c:a aac -shortest \"/home/nabin2004/Desktop/EdClaw/src/educlaw/automanim/workspace/workspace_episode_0001/final.mp4\"\nffmpeg version 6.1.1-3ubuntu5+esm7 Copyright (c) 2000-2023 the FFmpeg developers\n  built with gcc 13 (Ubuntu 13.3.0-6ubuntu2~24.04)\n  configuration: --prefix=/usr --extra-version=3ubuntu5+esm7 --toolchain=hardened --libdir=/usr/lib/x86_64-linux-gnu --incdir=/usr/include/x86_64-linux-gnu --arch=amd64 --enable-gpl --disable-stripping --disable-omx --enable-gnutls --enable-libaom --enable-libass --enable-libbs2b --enable-libcaca --enable-libcdio --enable-libcodec2 --enable-libdav1d --enable-libflite --enable-libfontconfig --enable-libfreetype --enable-libfribidi --enable-libglslang --enable-libgme --enable-libgsm --enable-libharfbuzz --enable-libmp3lame --enable-libmysofa --enable-libopenjpeg --enable-libopenmpt --enable-libopus --enable-librubberband --enable-libshine --enable-libsnappy --enable-libsoxr --enable-libspeex --enable-libtheora --enable-libtwolame --enable-libvidstab --enable-libvorbis --enable-libvpx --enable-libwebp --enable-libx265 --enable-libxml2 --enable-libxvid --enable-libzimg --enable-openal --enable-opencl --enable-opengl --disable-sndio --enable-libvpl --disable-libmfx --enable-libdc1394 --enable-libdrm --enable-libiec61883 --enable-chromaprint --enable-frei0r --enable-ladspa --enable-libbluray --enable-libjack --enable-libpulse --enable-librabbitmq --enable-librist --enable-libsrt --enable-libssh --enable-libsvtav1 --enable-libx264 --enable-libzmq --enable-libzvbi --enable-lv2 --enable-sdl2 --enable-libplacebo --enable-librav1e --enable-pocketsphinx --enable-librsvg --enable-libjxl --enable-shared\n  libavutil      58. 29.100 / 58. 29.100\n  libavcodec     60. 31.102 / 60. 31.102\n  libavformat    60. 16.100 / 60. 16.100\n  libavdevice    60.  3.100 / 60.  3.100\n  libavfilter     9. 12.100 /  9. 12.100\n  libswscale      7.  5.100 /  7.  5.100\n  libswresample   4. 12.100 /  4. 12.100\n  libpostproc    57.  3.100 / 57.  3.100\nInput #0, mov,mp4,m4a,3gp,3g2,mj2, from '/home/nabin2004/Desktop/EdClaw/src/educlaw/automanim/workspace/workspace_episode_0001/final.mp4':\n  Metadata:\n    major_brand     : isom\n    minor_version   : 512\n    compatible_brands: isomiso2avc1mp41\n    encoder         : Lavf60.16.100\n    comment         : Rendered with Manim Community v0.20.1\n  Duration: 00:00:16.67, start: 0.000000, bitrate: 325 kb/s\n  Stream #0:0[0x1](und): Video: h264 (High) (avc1 / 0x31637661), yuv420p(progressive), 854x480, 252 kb/s, 15 fps, 15 tbr, 90k tbn (default)\n    Metadata:\n      handler_name    : VideoHandler\n      vendor_id       : [0][0][0][0]\n  Stream #0:1[0x2](und): Audio: aac (LC) (mp4a / 0x6134706D), 22050 Hz, mono, fltp, 67 kb/s (default)\n    Metadata:\n      handler_name    : SoundHandler\n      vendor_id       : [0][0][0][0]\n[aist#1:0/pcm_s16le @ 0x6315f83c6b00] Guessed Channel Layout: mono\nInput #1, wav, from '/home/nabin2004/Desktop/EdClaw/src/educlaw/automanim/workspace/workspace_episode_0001/audio.wav':\n  Metadata:\n    encoder         : Lavf60.16.100\n  Duration: 00:00:50.61, bitrate: 384 kb/s\n  Stream #1:0: Audio: pcm_s16le ([1][0][0][0] / 0x0001), 24000 Hz, 1 channels, s16, 384 kb/s\nOutput /home/nabin2004/Desktop/EdClaw/src/educlaw/automanim/workspace/workspace_episode_0001/final.mp4 same as Input #0 - exiting\nFFmpeg cannot edit existing files in-place.\nError opening output file /home/nabin2004/Desktop/EdClaw/src/educlaw/automanim/workspace/workspace_episode_0001/final.mp4.\nError opening output files: Invalid argument\n\n    at genericNodeError (node:internal/errors:983:15)\n    at wrappedFn (node:internal/errors:537:14)\n    at ChildProcess.exithandler (node:child_process:417:12)\n    at ChildProcess.emit (node:events:519:28)\n    at maybeClose (node:internal/child_process:1101:16)\n    at ChildProcess._handle.onexit (node:internal/child_process:304:5)"
  },
  "circuitBreakerTripped": false
}